<?xml version="1.0" standalone="no"?><!DOCTYPE svg PUBLIC "-//W3C//DTD SVG 1.1//EN" "http://www.w3.org/Graphics/SVG/1.1/DTD/svg11.dtd"><svg t="1603122581274" class="icon" viewBox="0 0 1024 1024" version="1.1" xmlns="http://www.w3.org/2000/svg" p-id="3785" xmlns:xlink="http://www.w3.org/1999/xlink" width="200" height="200"><defs><style type="text/css"></style></defs><path d="M848.21 887.42a21.16 21.16 0 0 0-3.18 2.75l0.26-0.18c0.9-0.78 1.84-1.53 2.7-2.35zM273.84 133.9c-0.9 0.78-1.84 1.53-2.7 2.35l-0.22 0.23a22.36 22.36 0 0 0 3.18-2.76z" p-id="3786"></path><path d="M896.9 100.1C878 76.63 847.21 65.06 817.65 65H300.66c-35.32 0.12-71.67 17.81-88.74 49.75-7.95 14.88-10.67 30.76-10.67 47.34v498.38h-11.36a72.14 72.14 0 0 0-48.1 18.27c-11.27 9.93-17.11 23.13-21.52 37.14a289.15 289.15 0 0 0-8.68 35c-5.42 29.94-7.13 60.44-3.68 90.71 2.92 25.69 6.21 55.93 21.76 77.53 17.63 24.5 44.59 39.39 75 39.69H720c33 0 66 0.27 99 0 42.73-0.34 87-27.5 96.54-71.26 2-9.12 2.34-17.88 2.34-27V159c0-22.08-7.12-41.72-20.98-58.9z m-629.28 39.72a23.88 23.88 0 0 0 1.42-2c0.1 0.18-0.63 1.07-1.42 2z m-83.21 582a3.2 3.2 0 0 0 0.27-0.25z m383 176.42h-298c-21.43 0-42.86 0.15-64.29 0-1.5 0-3-0.06-4.48-0.16a65.12 65.12 0 0 1-7.91-2.17 60.58 60.58 0 0 1-5.77-3.26l-0.53-0.36c-1-0.87-2-1.69-2.93-2.6s-2.07-2.17-3.07-3.28l-0.07-0.11a59 59 0 0 1-3.76-6.55c-4-11-6.06-23.09-7.72-34.76a292.2 292.2 0 0 1-0.22-70c2.39-16 5.86-32.46 11.44-47.74 0.49-0.93 1-1.84 1.54-2.77l-0.22 0.18 0.29-0.3 0.38-0.68 0.1-0.17 0.08-0.06 1-0.6c0.28-0.24 0.54-0.5 0.81-0.75h0.08l-0.51 0.53c0.47-0.28 0.94-0.55 1.42-0.81 0.89-0.27 1.78-0.52 2.68-0.73 5-0.25 10 0 14.9 0l40.8-0.07 135.09-0.25 164.34-0.29 142.52-0.25c8.7 0 17.4 0 26.11 0.11-17.93 57.57-18.77 119.91-0.22 177.95H567.42z m279.1-9.12l-1.23 0.83c-0.42 0.36-0.83 0.73-1.22 1.11 0.35-0.34 0.66-0.65 1-0.93l-0.71 0.48a70 70 0 0 1-7.51 4.22 79.82 79.82 0 0 1-11.7 3.17c-11.76 1-23.87 0.25-35.58 0.25h-14.1A274.59 274.59 0 0 1 760 840.2a270.78 270.78 0 0 1 0-62.34 272.91 272.91 0 0 1 16.68-60.8c1.78-4 3.65-8 5.62-12 4.93-9.88 5.76-20.76 0-30.59a30.51 30.51 0 0 0-26.16-15l-68.61 0.12-158.41 0.28-179.68 0.32-87.55 0.16v-443c0-20.35-0.17-40.71 0-61.06 0-1.21 0.06-2.42 0.13-3.62a59.56 59.56 0 0 1 1.76-6.31 57.91 57.91 0 0 1 3.61-6.18c1.17-1.27 2.33-2.55 3.57-3.75-0.53 0.27 0.46-0.92 1.69-1.74l1.23-0.84c0.42-0.36 0.83-0.73 1.22-1.11-0.35 0.34-0.66 0.65-1 0.93l0.71-0.48a70 70 0 0 1 7.51-4.22 80.1 80.1 0 0 1 11.38-3.1c6.14-0.46 12.32-0.31 18.47-0.31h445.72c20.25 0 40.5-0.13 60.75 0 2.24 0 4.46 0.12 6.68 0.29a80.58 80.58 0 0 1 11.51 3.15 69 69 0 0 1 6.93 3.85c0.34 0.21 1 0.65 1.64 1.13 0.93 0.79 2.15 1.82 2.59 2.24 1.24 1.2 2.45 2.44 3.59 3.73v0.05c1.38 2.12 2.66 4.27 3.81 6.49a61.34 61.34 0 0 1 1.73 6.24c0.46 6.81 0.12 13.77 0.12 20.52v694.01c0 1.31 0 2.61-0.13 3.91a59.56 59.56 0 0 1-1.76 6.31 57.91 57.91 0 0 1-3.61 6.18c-1.17 1.27-2.33 2.55-3.57 3.76 0.57-0.28-0.42 0.91-1.65 1.74z m5-5.08c-0.3 0.4-1.46 1.92-1.42 2-0.09-0.11 0.63-1.04 1.42-1.96z" p-id="3787"></path><path d="M183.66 722.65l-0.38 0.24c-0.22 0.19-0.45 0.38-0.65 0.59s-0.59 0.61-0.87 0.92l-0.07 0.12c0.47-0.4 1.12-1 1.97-1.87zM509.6 318.81H769c15.85 0 31-13.94 30.3-30.3s-13.3-30.3-30.3-30.3H509.6c-15.85 0-31 13.94-30.3 30.3s13.31 30.3 30.3 30.3zM776.3 453.36H516.91c-15.85 0-31 13.94-30.3 30.3S499.92 514 516.91 514H776.3c15.85 0 31-13.94 30.3-30.31s-13.31-30.33-30.3-30.33z" p-id="3788"></path><path d="M367.92 288.51m-30.3 0a30.3 30.3 0 1 0 60.6 0 30.3 30.3 0 1 0-60.6 0Z" p-id="3789"></path><path d="M367.92 483.66m-30.3 0a30.3 30.3 0 1 0 60.6 0 30.3 30.3 0 1 0-60.6 0Z" p-id="3790"></path></svg>