<?xml version="1.0" standalone="no"?><!DOCTYPE svg PUBLIC "-//W3C//DTD SVG 1.1//EN" "http://www.w3.org/Graphics/SVG/1.1/DTD/svg11.dtd"><svg t="1602909807650" class="icon" viewBox="0 0 1024 1024" version="1.1" xmlns="http://www.w3.org/2000/svg" p-id="2895" xmlns:xlink="http://www.w3.org/1999/xlink" width="200" height="200"><defs><style type="text/css"></style></defs><path d="M437.333333 977.066667c-34.133333 0-66.133333-12.8-89.6-38.4L83.2 676.266667c-49.066667-49.066667-49.066667-130.133333 0-181.333334l405.333333-405.333333c23.466667-23.466667 57.6-38.4 89.6-38.4h264.533334c70.4 0 128 57.6 128 128v262.4c0 34.133333-12.8 66.133333-38.4 91.733333l-405.333334 405.333334c-23.466667 25.6-55.466667 38.4-89.6 38.4z m142.933334-838.4c-10.666667 0-21.333333 4.266667-29.866667 12.8l-405.333333 405.333333c-17.066667 17.066667-17.066667 42.666667 0 59.733333l262.4 264.533334c17.066667 17.066667 42.666667 17.066667 59.733333 0l405.333333-405.333334c8.533333-8.533333 12.8-19.2 12.8-29.866666V181.333333c0-23.466667-19.2-42.666667-42.666666-42.666666H580.266667z" fill="#4E4E4E" p-id="2896"></path><path d="M693.333333 330.666667m-98.133333 0a98.133333 98.133333 0 1 0 196.266667 0 98.133333 98.133333 0 1 0-196.266667 0Z" fill="#FF9813" p-id="2897"></path></svg>