<?xml version="1.0" standalone="no"?><!DOCTYPE svg PUBLIC "-//W3C//DTD SVG 1.1//EN" "http://www.w3.org/Graphics/SVG/1.1/DTD/svg11.dtd"><svg t="1602858864104" class="icon" viewBox="0 0 1024 1024" version="1.1" xmlns="http://www.w3.org/2000/svg" p-id="682" xmlns:xlink="http://www.w3.org/1999/xlink" width="200" height="200"><defs><style type="text/css"></style></defs><path d="M930.583763 63.215981H595.299061c-7.407823 0-14.517617 2.946421-19.757958 8.184504L72.610663 574.32641c-10.907404 10.914177-10.907404 28.594964 0 39.509141l335.291476 335.284703a27.822798 27.822798 0 0 0 19.753442 8.184504c7.150434 0 14.298611-2.727415 19.755699-8.184504l502.925925-502.925925a27.951493 27.951493 0 0 0 8.186762-19.7557v-335.282444c0-15.42525-12.510438-27.940204-27.940204-27.940204zM902.641302 414.869692L427.655581 889.855413 131.889051 594.08211 606.867998 119.096388h295.773304V414.869692z" fill="#040000" p-id="683"></path><path d="M721.031106 412.469656c61.621978 0 111.760815-50.138837 111.760815-111.760814s-50.138837-111.760815-111.760815-111.760815c-61.624236 0-111.760815 50.136579-111.760815 111.760815s50.136579 111.760815 111.760815 111.760814z m0-167.641222c30.818891 0 55.880407 25.061516 55.880408 55.880408s-25.061516 55.880407-55.880408 55.880407-55.880407-25.061516-55.880407-55.880407 25.059258-55.880407 55.880407-55.880408z" fill="#040000" p-id="684"></path></svg>