<?xml version="1.0" standalone="no"?><!DOCTYPE svg PUBLIC "-//W3C//DTD SVG 1.1//EN" "http://www.w3.org/Graphics/SVG/1.1/DTD/svg11.dtd"><svg t="1602904787647" class="icon" viewBox="0 0 1024 1024" version="1.1" xmlns="http://www.w3.org/2000/svg" p-id="1591" xmlns:xlink="http://www.w3.org/1999/xlink" width="200" height="200"><defs><style type="text/css"></style></defs><path d="M503.854545 466.618182c-6.981818 0-15.127273-2.327273-20.945454-8.145455L372.363636 346.763636c-11.636364-11.636364-11.636364-30.254545 0-40.727272 11.636364-11.636364 30.254545-11.636364 40.727273 0l111.709091 111.709091c11.636364 11.636364 11.636364 30.254545 0 40.727272-5.818182 4.654545-12.8 8.145455-20.945455 8.145455z" p-id="1592"></path><path d="M520.145455 466.618182c-6.981818 0-15.127273-2.327273-20.945455-8.145455-11.636364-11.636364-11.636364-30.254545 0-40.727272l111.709091-111.709091c11.636364-11.636364 30.254545-11.636364 40.727273 0 11.636364 11.636364 11.636364 30.254545 0 40.727272l-111.709091 111.709091c-4.654545 4.654545-12.8 8.145455-19.781818 8.145455z" p-id="1593"></path><path d="M663.272727 486.4H360.727273c-16.290909 0-29.090909-12.8-29.090909-29.090909s12.8-29.090909 29.090909-29.090909h302.545454c16.290909 0 29.090909 12.8 29.090909 29.090909s-12.8 29.090909-29.090909 29.090909zM663.272727 623.709091H360.727273c-16.290909 0-29.090909-12.8-29.090909-29.090909s12.8-29.090909 29.090909-29.090909h302.545454c16.290909 0 29.090909 12.8 29.090909 29.090909s-12.8 29.090909-29.090909 29.090909z" p-id="1594"></path><path d="M512 750.545455c-16.290909 0-29.090909-12.8-29.090909-29.09091V457.309091c0-16.290909 12.8-29.090909 29.090909-29.090909s29.090909 12.8 29.090909 29.090909V721.454545c0 16.290909-12.8 29.090909-29.090909 29.09091z" p-id="1595"></path><path d="M512 1000.727273C242.036364 1000.727273 23.272727 781.963636 23.272727 512S242.036364 23.272727 512 23.272727s488.727273 218.763636 488.727273 488.727273-218.763636 488.727273-488.727273 488.727273z m0-919.272728C274.618182 81.454545 81.454545 274.618182 81.454545 512s193.163636 430.545455 430.545455 430.545455 430.545455-193.163636 430.545455-430.545455S749.381818 81.454545 512 81.454545z" p-id="1596"></path></svg>