<?xml version="1.0" standalone="no"?><!DOCTYPE svg PUBLIC "-//W3C//DTD SVG 1.1//EN" "http://www.w3.org/Graphics/SVG/1.1/DTD/svg11.dtd"><svg t="1603167437470" class="icon" viewBox="0 0 1024 1024" version="1.1" xmlns="http://www.w3.org/2000/svg" p-id="4097" xmlns:xlink="http://www.w3.org/1999/xlink" width="200" height="200"><defs><style type="text/css"></style></defs><path d="M512 0c-282.8 0-512 229.2-512 512s229.2 512 512 512c282.768 0 512-229.2 512-512s-229.232-512-512-512v0 0zM512 976c-256.265 0-464-207.735-464-464s207.735-464 464-464c256.265 0 464 207.735 464 464s-207.735 464-464 464v0 0zM833.168 343.735l-381.833 381.863c-6.336 6.265-14.567 9.401-22.8 9.335-8.233 0-16.464-3.072-22.736-9.335l-214.969-215.001c-12.496-12.464-12.496-32.736 0-45.264 12.505-12.464 32.768-12.464 45.232 0l192.464 192.464 359.337-359.335c12.496-12.464 32.8-12.464 45.305 0 12.496 12.535 12.496 32.8 0 45.271v0 0zM833.168 343.735z" fill="#8a8a8a" p-id="4098"></path></svg>