<?xml version="1.0" standalone="no"?><!DOCTYPE svg PUBLIC "-//W3C//DTD SVG 1.1//EN" "http://www.w3.org/Graphics/SVG/1.1/DTD/svg11.dtd"><svg t="1603701593132" class="icon" viewBox="0 0 1024 1024" version="1.1" xmlns="http://www.w3.org/2000/svg" p-id="3060" xmlns:xlink="http://www.w3.org/1999/xlink" width="200" height="200"><defs><style type="text/css"></style></defs><path d="M767.5 959.7h-543c-52.9 0-96-43.1-96-96v-672c0-52.9 43.1-96 96-96h329c17.7 0 32 14.3 32 32s-14.3 32-32 32h-329c-17.6 0-32 14.4-32 32v672c0 17.6 14.4 32 32 32h543c17.6 0 32-14.4 32-32v-472c0-17.7 14.3-32 32-32s32 14.3 32 32v472c0 52.9-43 96-96 96z" fill="#8a8a8a" p-id="3061"></path><path d="M303.9 703.3c-4.2 0-8.5-0.8-12.7-2.6-16.2-7-23.7-25.8-16.7-42.1l68.3-158.2c7-16.2 25.8-23.7 42.1-16.7 16.2 7 23.7 25.8 16.7 42.1L333.3 684c-5.3 12.1-17 19.3-29.4 19.3z" fill="#8a8a8a" p-id="3062"></path><path d="M303.9 703.3c-12.4 0-24.3-7.3-29.5-19.5-6.9-16.3 0.6-35.1 16.9-42l158.8-67.7c16.3-6.9 35.1 0.6 42 16.9 6.9 16.3-0.6 35.1-16.9 42l-158.8 67.7c-4.1 1.8-8.3 2.6-12.5 2.6z" fill="#8a8a8a" p-id="3063"></path><path d="M485.3 626.3L349.6 490.5l408-408c11.7-11.7 27.3-18.2 43.8-18.2s32.1 6.4 43.8 18.2l48.1 48.1c24.2 24.2 24.2 63.5 0 87.7l-408 408z m-45.2-135.8l45.3 45.3 361.3-361.3-45.3-45.3-361.3 361.3z" fill="#8a8a8a" p-id="3064"></path><path d="M801.6 296.9c-8.2 0-16.4-3.1-22.6-9.4L688.5 197c-12.5-12.5-12.5-32.8 0-45.3s32.8-12.5 45.3 0l90.5 90.5c12.5 12.5 12.5 32.8 0 45.3-6.3 6.2-14.5 9.4-22.7 9.4z" fill="#8a8a8a" p-id="3065"></path></svg>